<svg width="84" height="62" viewBox="0 0 84 62" fill="none" xmlns="http://www.w3.org/2000/svg">
<path d="M20.46 61.3801C16.94 61.3801 13.86 60.7201 11.22 59.4001C8.58001 57.9334 6.45334 56.0267 4.84001 53.6801C3.37334 51.3334 2.20001 48.5467 1.32001 45.3201C0.440008 42.0934 8.09133e-06 38.7201 8.09133e-06 35.2001C8.09133e-06 28.0134 1.83334 21.2667 5.50001 14.9601C9.31334 8.65339 15.18 3.66672 23.1 5.07832e-05L25.08 3.96005C20.9733 5.86672 17.3067 8.65339 14.08 12.3201C11 15.8401 9.16668 19.5801 8.58001 23.5401C7.70001 26.6201 7.62668 29.6267 8.36001 32.5601C11.5867 29.0401 15.9133 27.2801 21.34 27.2801C26.3267 27.2801 30.4333 28.8201 33.66 31.9001C36.8867 34.8334 38.5 38.9401 38.5 44.2201C38.5 49.3534 36.8133 53.5334 33.44 56.7601C30.0667 59.8401 25.74 61.3801 20.46 61.3801ZM65.78 61.3801C62.26 61.3801 59.18 60.7201 56.54 59.4001C53.9 57.9334 51.7733 56.0267 50.16 53.6801C48.6933 51.3334 47.52 48.5467 46.64 45.3201C45.76 42.0934 45.32 38.7201 45.32 35.2001C45.32 28.0134 47.1533 21.2667 50.82 14.9601C54.6333 8.65339 60.5 3.66672 68.42 5.07832e-05L70.4 3.96005C66.2933 5.86672 62.6267 8.65339 59.4 12.3201C56.32 15.8401 54.4867 19.5801 53.9 23.5401C53.02 26.6201 52.9467 29.6267 53.68 32.5601C56.9067 29.0401 61.2333 27.2801 66.66 27.2801C71.6467 27.2801 75.7533 28.8201 78.98 31.9001C82.2067 34.8334 83.82 38.9401 83.82 44.2201C83.82 49.3534 82.1333 53.5334 78.76 56.7601C75.3867 59.8401 71.06 61.3801 65.78 61.3801Z" fill="#603809"/>
</svg>
